<mxfile host="app.diagrams.net" modified="2022-11-22T16:19:55.056Z" agent="5.0 (Macintosh)" etag="8CC1m0AXR3e01ZmIcSpL" version="20.4.0" type="github">
  <diagram id="Ab_ZkT4DtHQJgXHxgMg-" name="Page-1">
    <mxGraphModel dx="1366" dy="879" grid="1" gridSize="10" guides="1" tooltips="1" connect="1" arrows="1" fold="1" page="1" pageScale="1" pageWidth="827" pageHeight="1169" math="0" shadow="0">
      <root>
        <mxCell id="0" />
        <mxCell id="1" parent="0" />
        <mxCell id="iQQXq1oimjcRr16U-AZG-66" value="&lt;div&gt;Etudiant&lt;/div&gt;" style="shape=umlActor;verticalLabelPosition=bottom;verticalAlign=top;html=1;" vertex="1" parent="1">
          <mxGeometry x="40" y="460" width="30" height="60" as="geometry" />
        </mxCell>
        <mxCell id="iQQXq1oimjcRr16U-AZG-67" value="Tableau de bord" style="swimlane;" vertex="1" parent="1">
          <mxGeometry x="130" y="170" width="730" height="1170" as="geometry">
            <mxRectangle x="190" y="220" width="90" height="30" as="alternateBounds" />
          </mxGeometry>
        </mxCell>
        <mxCell id="iQQXq1oimjcRr16U-AZG-68" value="Messagerie" style="swimlane;startSize=23;" vertex="1" parent="iQQXq1oimjcRr16U-AZG-67">
          <mxGeometry x="50" y="50" width="620" height="250" as="geometry" />
        </mxCell>
        <mxCell id="iQQXq1oimjcRr16U-AZG-69" value="Envoyer message" style="ellipse;whiteSpace=wrap;html=1;" vertex="1" parent="iQQXq1oimjcRr16U-AZG-68">
          <mxGeometry x="70" y="40" width="140" height="70" as="geometry" />
        </mxCell>
        <mxCell id="iQQXq1oimjcRr16U-AZG-70" value="&lt;div&gt;Lire message&lt;/div&gt;" style="ellipse;whiteSpace=wrap;html=1;" vertex="1" parent="iQQXq1oimjcRr16U-AZG-68">
          <mxGeometry x="70" y="140" width="140" height="70" as="geometry" />
        </mxCell>
        <mxCell id="iQQXq1oimjcRr16U-AZG-73" value="Retards" style="swimlane;" vertex="1" parent="iQQXq1oimjcRr16U-AZG-67">
          <mxGeometry x="50" y="330" width="620" height="150" as="geometry" />
        </mxCell>
        <mxCell id="iQQXq1oimjcRr16U-AZG-75" value="Voir retards de ses moyens de transport" style="ellipse;whiteSpace=wrap;html=1;" vertex="1" parent="iQQXq1oimjcRr16U-AZG-73">
          <mxGeometry x="70" y="49" width="140" height="70" as="geometry" />
        </mxCell>
        <mxCell id="iQQXq1oimjcRr16U-AZG-78" value="Voir durée totale des retards de ses moyens de transport" style="ellipse;whiteSpace=wrap;html=1;" vertex="1" parent="iQQXq1oimjcRr16U-AZG-73">
          <mxGeometry x="420" y="49" width="140" height="70" as="geometry" />
        </mxCell>
        <mxCell id="iQQXq1oimjcRr16U-AZG-80" value="Billets" style="swimlane;" vertex="1" parent="iQQXq1oimjcRr16U-AZG-67">
          <mxGeometry x="50" y="510" width="620" height="150" as="geometry" />
        </mxCell>
        <mxCell id="iQQXq1oimjcRr16U-AZG-81" value="&lt;div&gt;Consulter ses billets&lt;/div&gt;" style="ellipse;whiteSpace=wrap;html=1;" vertex="1" parent="iQQXq1oimjcRr16U-AZG-80">
          <mxGeometry x="240" y="50" width="140" height="70" as="geometry" />
        </mxCell>
        <mxCell id="iQQXq1oimjcRr16U-AZG-83" value="Compte" style="swimlane;" vertex="1" parent="iQQXq1oimjcRr16U-AZG-67">
          <mxGeometry x="50" y="690" width="620" height="200" as="geometry" />
        </mxCell>
        <mxCell id="iQQXq1oimjcRr16U-AZG-76" value="&lt;div&gt;Modifier trajet&lt;/div&gt;" style="ellipse;whiteSpace=wrap;html=1;" vertex="1" parent="iQQXq1oimjcRr16U-AZG-83">
          <mxGeometry x="240" y="65" width="140" height="70" as="geometry" />
        </mxCell>
        <mxCell id="iQQXq1oimjcRr16U-AZG-85" value="Se déconnecter" style="ellipse;whiteSpace=wrap;html=1;" vertex="1" parent="iQQXq1oimjcRr16U-AZG-83">
          <mxGeometry x="410" y="65" width="140" height="70" as="geometry" />
        </mxCell>
        <mxCell id="iQQXq1oimjcRr16U-AZG-90" value="Details" style="swimlane;" vertex="1" parent="iQQXq1oimjcRr16U-AZG-67">
          <mxGeometry x="50" y="910" width="620" height="200" as="geometry" />
        </mxCell>
        <mxCell id="iQQXq1oimjcRr16U-AZG-92" value="&lt;div&gt;Voir camarades de classe&lt;/div&gt;" style="ellipse;whiteSpace=wrap;html=1;" vertex="1" parent="iQQXq1oimjcRr16U-AZG-90">
          <mxGeometry x="230" y="50" width="120" height="60" as="geometry" />
        </mxCell>
        <mxCell id="iQQXq1oimjcRr16U-AZG-95" value="&lt;div&gt;Voir prochain cours&lt;/div&gt;" style="ellipse;whiteSpace=wrap;html=1;" vertex="1" parent="iQQXq1oimjcRr16U-AZG-90">
          <mxGeometry x="150" y="120" width="120" height="60" as="geometry" />
        </mxCell>
        <mxCell id="iQQXq1oimjcRr16U-AZG-71" value="" style="endArrow=none;html=1;rounded=0;" edge="1" parent="1" source="iQQXq1oimjcRr16U-AZG-66" target="iQQXq1oimjcRr16U-AZG-69">
          <mxGeometry width="50" height="50" relative="1" as="geometry">
            <mxPoint x="490" y="520" as="sourcePoint" />
            <mxPoint x="540" y="470" as="targetPoint" />
          </mxGeometry>
        </mxCell>
        <mxCell id="iQQXq1oimjcRr16U-AZG-72" value="" style="endArrow=none;html=1;rounded=0;" edge="1" parent="1" source="iQQXq1oimjcRr16U-AZG-66" target="iQQXq1oimjcRr16U-AZG-70">
          <mxGeometry width="50" height="50" relative="1" as="geometry">
            <mxPoint x="110" y="359.17130691881664" as="sourcePoint" />
            <mxPoint x="300.3823972090904" y="348.65340189573294" as="targetPoint" />
          </mxGeometry>
        </mxCell>
        <mxCell id="iQQXq1oimjcRr16U-AZG-74" value="" style="endArrow=none;html=1;rounded=0;" edge="1" parent="1" source="iQQXq1oimjcRr16U-AZG-66" target="iQQXq1oimjcRr16U-AZG-75">
          <mxGeometry width="50" height="50" relative="1" as="geometry">
            <mxPoint x="80" y="497.28742903261013" as="sourcePoint" />
            <mxPoint x="300" y="710" as="targetPoint" />
          </mxGeometry>
        </mxCell>
        <mxCell id="iQQXq1oimjcRr16U-AZG-77" value="" style="endArrow=none;html=1;rounded=0;" edge="1" parent="1" source="iQQXq1oimjcRr16U-AZG-66" target="iQQXq1oimjcRr16U-AZG-85">
          <mxGeometry width="50" height="50" relative="1" as="geometry">
            <mxPoint x="80" y="507.6161944872872" as="sourcePoint" />
            <mxPoint x="340.86690918224076" y="640.0704021959152" as="targetPoint" />
          </mxGeometry>
        </mxCell>
        <mxCell id="iQQXq1oimjcRr16U-AZG-79" value="" style="endArrow=none;html=1;rounded=0;" edge="1" parent="1" source="iQQXq1oimjcRr16U-AZG-66" target="iQQXq1oimjcRr16U-AZG-78">
          <mxGeometry width="50" height="50" relative="1" as="geometry">
            <mxPoint x="80" y="514.4518034948387" as="sourcePoint" />
            <mxPoint x="307.7969832876636" y="733.9236194408647" as="targetPoint" />
          </mxGeometry>
        </mxCell>
        <mxCell id="iQQXq1oimjcRr16U-AZG-82" value="" style="endArrow=none;html=1;rounded=0;" edge="1" parent="1" source="iQQXq1oimjcRr16U-AZG-66" target="iQQXq1oimjcRr16U-AZG-81">
          <mxGeometry width="50" height="50" relative="1" as="geometry">
            <mxPoint x="75.15070279926613" y="530" as="sourcePoint" />
            <mxPoint x="278.3304777936048" y="1130.4897759661405" as="targetPoint" />
          </mxGeometry>
        </mxCell>
        <mxCell id="iQQXq1oimjcRr16U-AZG-86" value="" style="endArrow=none;html=1;rounded=0;" edge="1" parent="1" source="iQQXq1oimjcRr16U-AZG-66" target="iQQXq1oimjcRr16U-AZG-76">
          <mxGeometry width="50" height="50" relative="1" as="geometry">
            <mxPoint x="79.68875377143718" y="530" as="sourcePoint" />
            <mxPoint x="283.3735934389813" y="946.0016081084107" as="targetPoint" />
          </mxGeometry>
        </mxCell>
        <mxCell id="iQQXq1oimjcRr16U-AZG-87" value="&amp;lt;&amp;lt;include&amp;gt;&amp;gt;" style="html=1;verticalAlign=bottom;labelBackgroundColor=none;endArrow=open;endFill=0;dashed=1;rounded=0;exitX=1;exitY=0.5;exitDx=0;exitDy=0;" edge="1" parent="1" source="iQQXq1oimjcRr16U-AZG-67" target="iQQXq1oimjcRr16U-AZG-89">
          <mxGeometry width="160" relative="1" as="geometry">
            <mxPoint x="500" y="630" as="sourcePoint" />
            <mxPoint x="1030" y="700" as="targetPoint" />
          </mxGeometry>
        </mxCell>
        <mxCell id="iQQXq1oimjcRr16U-AZG-89" value="S&#39;authentifier" style="ellipse;whiteSpace=wrap;html=1;" vertex="1" parent="1">
          <mxGeometry x="1040" y="665" width="140" height="70" as="geometry" />
        </mxCell>
        <mxCell id="iQQXq1oimjcRr16U-AZG-91" value="Voir classe" style="ellipse;whiteSpace=wrap;html=1;" vertex="1" parent="1">
          <mxGeometry x="230" y="1130" width="120" height="60" as="geometry" />
        </mxCell>
        <mxCell id="iQQXq1oimjcRr16U-AZG-93" value="" style="endArrow=none;html=1;rounded=0;" edge="1" parent="1" source="iQQXq1oimjcRr16U-AZG-66" target="iQQXq1oimjcRr16U-AZG-91">
          <mxGeometry width="50" height="50" relative="1" as="geometry">
            <mxPoint x="80.00000000000023" y="530" as="sourcePoint" />
            <mxPoint x="283.02250624745875" y="936.0450124949177" as="targetPoint" />
          </mxGeometry>
        </mxCell>
        <mxCell id="iQQXq1oimjcRr16U-AZG-94" value="" style="endArrow=none;html=1;rounded=0;" edge="1" parent="1" source="iQQXq1oimjcRr16U-AZG-66" target="iQQXq1oimjcRr16U-AZG-92">
          <mxGeometry width="50" height="50" relative="1" as="geometry">
            <mxPoint x="90.00000000000023" y="540" as="sourcePoint" />
            <mxPoint x="293.02250624745875" y="946.0450124949177" as="targetPoint" />
          </mxGeometry>
        </mxCell>
        <mxCell id="iQQXq1oimjcRr16U-AZG-98" value="" style="endArrow=none;html=1;rounded=0;" edge="1" parent="1" source="iQQXq1oimjcRr16U-AZG-95" target="iQQXq1oimjcRr16U-AZG-66">
          <mxGeometry width="50" height="50" relative="1" as="geometry">
            <mxPoint x="360" y="920" as="sourcePoint" />
            <mxPoint x="410" y="870" as="targetPoint" />
          </mxGeometry>
        </mxCell>
      </root>
    </mxGraphModel>
  </diagram>
</mxfile>
